<?xml version="1.0" standalone="no"?>
<!DOCTYPE svg PUBLIC "-//W3C//DTD SVG 20010904//EN"
 "http://www.w3.org/TR/2001/REC-SVG-20010904/DTD/svg10.dtd">
<svg version="1.0" xmlns="http://www.w3.org/2000/svg"
 width="291.000000pt" height="310.000000pt" viewBox="0 0 291.000000 310.000000"
 preserveAspectRatio="xMidYMid meet">

<g transform="translate(0.000000,310.000000) scale(0.100000,-0.100000)"
fill="#000000" stroke="none">
<path d="M1114 2982 c-87 -42 -147 -117 -162 -205 l-8 -42 -101 -7 c-174 -11
-187 -29 -188 -254 0 -134 1 -142 25 -178 l25 -37 505 3 c465 3 508 4 533 21
l27 17 0 183 c0 181 0 184 -24 206 -30 29 -81 40 -173 41 -71 0 -73 1 -79 28
-18 85 -75 170 -139 207 -60 36 -183 44 -241 17z m168 -181 c28 -25 33 -36 33
-76 0 -40 -5 -51 -33 -76 -68 -61 -162 -14 -162 82 0 22 10 41 34 65 44 44 83
45 128 5z"/>
<path d="M328 2618 c-21 -5 -56 -27 -79 -47 l-42 -37 -9 -170 c-5 -94 -7 -568
-6 -1055 l3 -884 22 -41 c27 -50 42 -63 90 -76 32 -9 1258 -29 1272 -21 2 2
-25 33 -60 70 -35 38 -85 101 -112 141 l-47 72 -490 0 -490 0 0 890 0 890 90
0 90 0 0 140 0 140 -97 -1 c-54 -1 -115 -6 -135 -11z"/>
<path d="M1880 2491 l0 -141 88 0 89 0 6 -276 c4 -152 8 -279 11 -281 2 -2 43
-1 90 3 l86 7 0 296 c0 325 -7 405 -40 451 -39 55 -91 74 -217 78 l-113 4 0
-141z"/>
<path d="M761 1961 c-91 -6 -95 -7 -102 -32 -3 -14 -4 -49 -1 -77 l5 -52 186
0 c102 0 351 -3 554 -7 l367 -6 0 91 0 92 -457 -2 c-252 -1 -500 -4 -552 -7z"/>
<path d="M2058 1611 c-376 -52 -630 -408 -553 -776 28 -134 116 -279 225 -369
65 -53 187 -112 276 -132 99 -22 242 -15 334 16 196 65 360 228 421 420 26 79
35 232 20 312 -63 338 -387 574 -723 529z m42 -464 c4 -5 52 46 105 113 54 66
101 117 105 113 34 -42 88 -110 94 -120 4 -8 -31 -60 -90 -133 l-96 -120 56
-73 c30 -39 74 -95 97 -124 l41 -51 -52 -66 c-29 -36 -55 -66 -58 -66 -4 1
-49 55 -100 121 l-94 120 -96 -121 c-52 -66 -98 -120 -101 -120 -3 1 -29 31
-58 67 l-51 66 98 122 98 122 -98 123 -98 124 55 68 55 68 90 -113 c49 -61 93
-116 98 -120z"/>
<path d="M654 1448 c3 -29 6 -68 6 -85 l0 -33 368 0 c202 0 372 4 377 8 14 9
95 140 95 153 0 5 -166 9 -426 9 l-427 0 7 -52z"/>
<path d="M659 1003 c-12 -32 -5 -121 11 -137 7 -7 117 -12 320 -14 l310 -4 0
30 c0 16 3 57 6 91 l7 61 -322 0 -321 0 -11 -27z"/>
</g>
</svg>
