<?xml version="1.0" encoding="UTF-8" standalone="no"?>
<!DOCTYPE svg PUBLIC "-//W3C//DTD SVG 1.1//EN" "http://www.w3.org/Graphics/SVG/1.1/DTD/svg11.dtd">
<svg version="1.1" xmlns="http://www.w3.org/2000/svg" xmlns:xlink="http://www.w3.org/1999/xlink" preserveAspectRatio="xMidYMid meet" viewBox="0 0 300 300" width="300" height="300"><defs><path d="M95.07 31.73C95.02 32.09 94.8 33.87 94.4 37.07C87.28 37.39 83.32 37.56 82.53 37.6C66 38.13 66 38.13 66 60.53C66 76.27 66.27 78.67 68.53 81.2C71.07 84 72 84 121.2 84C164.53 84 171.87 83.73 174.4 81.87C177.2 80 177.33 78.93 177.33 61.6C177.33 51.6 176.8 42.67 176.27 41.87C174.27 38.67 169.07 37.33 159.47 37.33C149.87 37.33 149.33 37.2 149.33 34.27C149.33 32.67 148.13 28.93 146.8 26C141.07 13.47 126.93 6.93 114.13 10.67C104.53 13.6 96.27 22.67 95.07 31.73ZM128.53 45.2C123.87 48.8 119.73 48.67 115.2 44.93C110.4 40.67 110.4 33.87 115.33 29.6C119.87 25.73 124.67 25.87 128.67 30C133.33 34.53 133.2 41.47 128.53 45.2Z" id="b9cuPVmN0"></path><path d="M21.2 57.87C18.67 63.73 18.67 66.67 18.93 166.27C19.33 262.8 19.47 268.93 21.73 272.27C23.07 274.27 25.73 276.93 27.73 278.27C31.07 280.53 36.8 280.67 119.73 281.07C204.8 281.33 208.4 281.33 214 278.8C224.53 274.13 224.67 273.87 225.07 222C225.09 218.98 225.23 203.87 225.47 176.67L216.13 186L206.67 195.2L206.4 224L206 252.67L122 252.67L38 252.67L38 164L38 75.33L47.07 74.93L56 74.53L56 60.67L56 46.67C49.84 46.67 46.42 46.67 45.73 46.67C38.27 46.67 33.73 47.47 29.6 49.33C25.07 51.33 23.33 53.2 21.2 57.87Z" id="eRqF3WjCr"></path><path d="M188 74.53L197.07 74.93L206 75.33L206.67 89.07L207.33 102.8L216.53 93.47L225.73 84.27C225.33 77.15 225.11 73.19 225.07 72.4C224.13 52.4 218 46.67 198 46.67C197.33 46.67 194 46.67 188 46.67L188 60.67L188 74.53Z" id="a4Oio711Mg"></path><path d="M256.27 73.73C255.88 74.12 253.92 76.08 250.4 79.6C253.2 81.28 254.76 82.21 255.07 82.4C259.73 85.47 271.07 96.93 274.93 102.67C275.08 102.89 275.79 104 277.07 106C280.83 102.4 282.92 100.4 283.33 100C286.67 96.67 289.73 92.67 290.13 91.2C292.4 82.13 273.07 63.47 264.67 66.67C263.2 67.33 259.47 70.4 256.27 73.73Z" id="l3hLB5doH"></path><path d="M138.8 191.33C133.92 202.21 131.21 208.26 130.67 209.47C122.4 228.4 121.33 232.53 124.67 233.73C125.73 234.27 135.47 230.53 146.53 225.73C147.86 225.15 154.48 222.21 166.4 216.93L218 165.33L269.47 113.87C265.95 109.07 263.99 106.4 263.6 105.87C258.27 98.67 246.13 88 243.2 88C242.53 88 218.8 111.2 190.4 139.6C183.52 146.5 166.32 163.74 138.8 191.33ZM148.67 215.6C143.2 217.87 138.4 219.2 137.87 218.53C136.27 216 144.53 197.33 147.2 197.33C148.27 197.33 151.33 199.33 153.87 201.87C161.07 208.53 160.27 210.67 148.67 215.6Z" id="a6aaVum8mz"></path><path d="M113.33 121.33L150 121.33L186.67 121.33L186.67 117.33L186.67 113.33L150 113.33L113.33 113.33L113.33 117.33L113.33 121.33Z" id="b1PodvfIhL"></path><path d="M113.33 140L141.73 140L170.13 140L174 136L177.87 132L145.6 132L113.33 132L113.33 136L113.33 140Z" id="b3Y2ljzU4u"></path><path d="M113.33 158.67L132.4 158.67L151.47 158.67L155.33 154.67L159.2 150.67L136.27 150.67L113.33 150.67L113.33 154.67L113.33 158.67Z" id="aDkomO2W0"></path><path d="M113.33 177.33C119.17 177.33 122.42 177.33 123.07 177.33C132.13 177.33 133.07 177.07 136.67 173.33C136.92 173.07 138.21 171.73 140.53 169.33L126.93 169.33L113.33 169.33L113.33 173.33L113.33 177.33Z" id="b1GxMQxtjs"></path><path d="M77.07 175.81L77.07 175.81L69.67 185.16L55.96 167.84L63.36 158.49L69.67 166.46L88.48 142.68L95.88 152.04L77.07 175.81Z" id="a6zTV9wxi"></path><path d="M77.07 129.22L77.07 129.22L69.67 138.57L55.96 121.25L63.36 111.9L69.67 119.87L88.48 96.09L95.88 105.45L77.07 129.22Z" id="a1njuC5mtn"></path><path d="M77.07 224.43L77.07 224.43L69.67 233.78L55.96 216.46L63.36 207.11L69.67 215.08L88.48 191.31L95.88 200.66L77.07 224.43Z" id="a1P2IKemhB"></path></defs><g><g><g><use xlink:href="#b9cuPVmN0" opacity="1" fill="#000000" fill-opacity="1"></use><g><use xlink:href="#b9cuPVmN0" opacity="1" fill-opacity="0" stroke="#000000" stroke-width="1" stroke-opacity="0"></use></g></g><g><use xlink:href="#eRqF3WjCr" opacity="1" fill="#000000" fill-opacity="1"></use><g><use xlink:href="#eRqF3WjCr" opacity="1" fill-opacity="0" stroke="#000000" stroke-width="1" stroke-opacity="0"></use></g></g><g><use xlink:href="#a4Oio711Mg" opacity="1" fill="#000000" fill-opacity="1"></use><g><use xlink:href="#a4Oio711Mg" opacity="1" fill-opacity="0" stroke="#000000" stroke-width="1" stroke-opacity="0"></use></g></g><g><use xlink:href="#l3hLB5doH" opacity="1" fill="#000000" fill-opacity="1"></use><g><use xlink:href="#l3hLB5doH" opacity="1" fill-opacity="0" stroke="#000000" stroke-width="1" stroke-opacity="0"></use></g></g><g><use xlink:href="#a6aaVum8mz" opacity="1" fill="#000000" fill-opacity="1"></use><g><use xlink:href="#a6aaVum8mz" opacity="1" fill-opacity="0" stroke="#000000" stroke-width="1" stroke-opacity="0"></use></g></g><g><use xlink:href="#b1PodvfIhL" opacity="1" fill="#000000" fill-opacity="1"></use><g><use xlink:href="#b1PodvfIhL" opacity="1" fill-opacity="0" stroke="#000000" stroke-width="1" stroke-opacity="0"></use></g></g><g><use xlink:href="#b3Y2ljzU4u" opacity="1" fill="#000000" fill-opacity="1"></use><g><use xlink:href="#b3Y2ljzU4u" opacity="1" fill-opacity="0" stroke="#000000" stroke-width="1" stroke-opacity="0"></use></g></g><g><use xlink:href="#aDkomO2W0" opacity="1" fill="#000000" fill-opacity="1"></use><g><use xlink:href="#aDkomO2W0" opacity="1" fill-opacity="0" stroke="#000000" stroke-width="1" stroke-opacity="0"></use></g></g><g><use xlink:href="#b1GxMQxtjs" opacity="1" fill="#000000" fill-opacity="1"></use><g><use xlink:href="#b1GxMQxtjs" opacity="1" fill-opacity="0" stroke="#000000" stroke-width="1" stroke-opacity="0"></use></g></g><g><use xlink:href="#a6zTV9wxi" opacity="1" fill="#000000" fill-opacity="1"></use></g><g><use xlink:href="#a1njuC5mtn" opacity="1" fill="#000000" fill-opacity="1"></use></g><g><use xlink:href="#a1P2IKemhB" opacity="1" fill="#000000" fill-opacity="1"></use></g></g></g></svg>