<?xml version="1.0" standalone="no"?>
<!DOCTYPE svg PUBLIC "-//W3C//DTD SVG 20010904//EN"
 "http://www.w3.org/TR/2001/REC-SVG-20010904/DTD/svg10.dtd">
<svg version="1.0" xmlns="http://www.w3.org/2000/svg"
 width="225.000000pt" height="225.000000pt" viewBox="0 0 225.000000 225.000000"
 preserveAspectRatio="xMidYMid meet">

<g transform="translate(0.000000,225.000000) scale(0.100000,-0.100000)"
fill="#000000" stroke="none">
<path d="M856 2170 c-73 -23 -134 -90 -143 -159 l-6 -41 -73 0 c-131 0 -144
-17 -144 -190 0 -93 3 -111 21 -134 l20 -26 378 0 c325 0 380 2 399 16 21 14
22 22 22 154 0 138 0 139 -26 159 -22 17 -41 21 -105 21 -73 0 -79 2 -79 20 0
54 -56 136 -111 165 -34 18 -117 26 -153 15z m109 -145 c51 -50 17 -135 -55
-135 -66 0 -97 92 -46 137 35 30 71 29 101 -2z"/>
<path d="M225 1881 c-23 -10 -50 -31 -60 -47 -19 -28 -20 -53 -23 -801 -2
-752 -2 -774 17 -811 41 -80 17 -77 553 -80 l477 -3 -52 54 c-29 30 -65 77
-82 105 l-30 51 -370 3 -370 3 0 665 0 665 68 3 67 3 0 104 0 105 -77 0 c-54
0 -91 -6 -118 -19z"/>
<path d="M1410 1795 l0 -104 68 -3 67 -3 3 -208 2 -208 68 3 67 3 2 240 c0
132 -3 256 -8 276 -19 76 -77 109 -194 109 l-75 0 0 -105z"/>
<path d="M494 1386 c-3 -7 -4 -35 -2 -62 l3 -49 418 -3 417 -2 0 65 0 65 -415
0 c-344 0 -417 -2 -421 -14z"/>
<path d="M1495 1106 c-132 -32 -258 -138 -321 -269 -85 -180 -45 -410 95 -547
231 -226 601 -182 769 91 169 275 8 655 -308 728 -59 14 -173 12 -235 -3z
m380 -282 c26 -27 45 -56 45 -68 0 -22 -305 -387 -342 -410 -15 -9 -37 8 -143
114 -69 69 -125 132 -125 141 0 21 78 119 94 119 13 0 34 -17 112 -92 l51 -50
108 134 c106 131 131 158 146 158 5 0 29 -21 54 -46z"/>
<path d="M492 988 l3 -63 283 -3 c166 -1 282 1 282 7 0 5 16 32 35 61 19 29
35 54 35 56 0 2 -144 4 -320 4 l-321 0 3 -62z"/>
<path d="M497 693 c-13 -12 -8 -121 6 -124 6 -2 116 -4 242 -4 l230 0 3 68 3
67 -239 0 c-131 0 -242 -3 -245 -7z"/>
</g>
</svg>
