<?xml version="1.0" standalone="no"?>
<!DOCTYPE svg PUBLIC "-//W3C//DTD SVG 20010904//EN"
 "http://www.w3.org/TR/2001/REC-SVG-20010904/DTD/svg10.dtd">
<svg version="1.0" xmlns="http://www.w3.org/2000/svg"
 width="1350.000000pt" height="384.000000pt" viewBox="0 0 1350.000000 384.000000"
 preserveAspectRatio="xMidYMid meet">

<g transform="translate(0.000000,384.000000) scale(0.100000,-0.100000)"
fill="#000000" stroke="none">
<path d="M775 3403 c-330 -194 -603 -357 -608 -362 -4 -4 85 -63 199 -131
l207 -122 34 16 c40 19 1176 641 1212 663 23 15 19 18 -165 127 -104 61 -209
123 -234 137 l-45 26 -600 -354z"/>
<path d="M1471 2983 c-488 -269 -628 -350 -619 -359 20 -17 512 -307 523 -307
6 0 266 152 580 338 314 185 587 347 607 359 l38 22 -208 122 c-114 67 -225
133 -248 147 l-41 24 -632 -346z"/>
<path d="M50 2141 l0 -709 605 -351 c332 -193 607 -351 610 -351 3 0 5 315 5
700 l0 699 -242 145 -243 144 -3 -259 c-1 -142 -6 -259 -9 -259 -4 0 -60 30
-125 67 l-118 68 -2 268 -3 269 -210 124 c-116 69 -222 132 -237 140 l-28 15
0 -710z"/>
<path d="M7251 2729 c-394 -70 -673 -443 -623 -832 40 -321 248 -562 557 -648
112 -31 279 -32 388 -1 310 88 521 334 559 653 24 203 -46 423 -188 587 -83
97 -241 193 -374 226 -80 20 -246 28 -319 15z m250 -295 c87 -26 149 -62 209
-123 152 -154 182 -372 78 -561 l-31 -57 46 -144 c25 -79 45 -145 43 -146 -1
-1 -60 33 -132 75 l-129 78 -55 -19 c-166 -58 -354 -15 -480 111 -186 187
-187 477 -1 663 120 119 299 168 452 123z"/>
<path d="M7086 2018 c-22 -30 -20 -54 5 -79 29 -29 79 -23 99 14 13 24 13 30
0 55 -21 37 -81 44 -104 10z"/>
<path d="M7336 2024 c-9 -8 -16 -28 -16 -44 0 -36 23 -60 59 -60 34 0 61 28
61 63 0 34 -24 57 -60 57 -16 0 -36 -7 -44 -16z"/>
<path d="M7577 2022 c-34 -37 -8 -102 41 -102 52 0 81 43 60 88 -17 35 -75 43
-101 14z"/>
<path d="M3482 2003 l3 -648 107 -3 108 -3 2 503 3 503 223 -442 222 -443 65
0 65 0 222 443 223 442 3 -503 2 -503 108 3 107 3 3 648 2 647 -172 0 -173 0
-194 -406 -195 -405 -16 33 c-10 18 -97 201 -195 406 l-179 372 -173 0 -173 0
2 -647z"/>
<path d="M5136 2609 c14 -23 122 -199 240 -390 l214 -348 2 -258 3 -258 110 0
110 0 3 258 2 258 174 282 c95 155 203 330 239 390 l67 107 -123 0 -122 -1
-174 -291 c-151 -254 -176 -289 -186 -274 -7 9 -87 140 -176 291 l-164 274
-123 1 -122 0 26 -41z"/>
<path d="M8342 2003 l3 -648 107 -3 108 -3 2 218 3 218 142 3 142 3 156 -221
157 -220 135 0 135 0 -18 28 c-9 15 -82 118 -161 230 -79 111 -143 206 -143
211 0 5 15 14 34 21 56 18 128 76 167 135 64 95 86 249 53 385 -38 163 -132
239 -341 275 -63 11 -164 15 -384 15 l-299 0 2 -647z m662 432 c116 -30 151
-84 145 -222 -6 -108 -28 -149 -104 -188 l-59 -30 -213 -3 -213 -4 0 231 0
231 193 0 c140 0 209 -4 251 -15z"/>
<path d="M9692 2003 l3 -648 280 -3 c315 -3 393 6 515 57 161 67 288 202 340
361 22 67 25 92 25 235 -1 148 -3 166 -28 238 -15 43 -42 102 -61 130 -72 114
-208 206 -365 249 -68 19 -111 22 -394 26 l-317 4 2 -649z m642 422 c90 -25
146 -57 202 -117 67 -70 95 -143 102 -265 11 -212 -61 -358 -215 -430 -85 -39
-173 -53 -350 -53 l-163 0 0 438 c0 241 3 442 8 446 13 15 352 -1 416 -19z"/>
<path d="M11142 2003 l3 -648 465 0 465 0 3 103 3 102 -361 0 -360 0 2 173 3
172 308 3 307 2 0 95 0 95 -307 2 -308 3 -3 167 -2 168 347 2 348 3 3 103 3
102 -461 0 -460 0 2 -647z"/>
<path d="M12360 2001 l0 -652 108 3 107 3 3 218 2 217 143 0 142 -1 155 -219
155 -220 138 0 c108 0 137 3 131 13 -5 6 -77 108 -162 226 -84 117 -155 218
-158 225 -2 6 16 19 41 29 107 44 181 131 211 247 20 81 15 251 -11 322 -22
64 -94 141 -158 172 -112 55 -146 59 -509 64 l-338 4 0 -651z m654 435 c112
-27 151 -81 151 -211 0 -66 -5 -88 -25 -124 -52 -92 -117 -111 -377 -111
l-183 0 0 230 0 230 188 0 c124 0 207 -5 246 -14z"/>
<path d="M2460 2127 l-105 -63 -3 -147 -3 -148 23 12 c13 6 65 36 116 66 l92
54 0 145 c0 79 -3 144 -7 144 -5 -1 -55 -29 -113 -63z"/>
<path d="M2103 1918 l-103 -60 0 -145 c0 -125 2 -144 15 -139 8 3 58 31 110
61 l95 56 0 145 c0 79 -3 144 -7 143 -5 0 -54 -27 -110 -61z"/>
<path d="M1745 1711 l-100 -59 -3 -146 c-1 -80 0 -146 4 -146 3 0 52 27 110
61 l104 61 0 144 c0 79 -3 144 -7 144 -5 -1 -53 -27 -108 -59z"/>
</g>
</svg>
