<?xml version="1.0" standalone="no"?>
<!DOCTYPE svg PUBLIC "-//W3C//DTD SVG 20010904//EN"
 "http://www.w3.org/TR/2001/REC-SVG-20010904/DTD/svg10.dtd">
<svg version="1.0" xmlns="http://www.w3.org/2000/svg"
 width="225.000000pt" height="225.000000pt" viewBox="0 0 225.000000 225.000000"
 preserveAspectRatio="xMidYMid meet">

<g transform="translate(0.000000,225.000000) scale(0.100000,-0.100000)"
fill="#000000" stroke="none">
<path d="M856 2170 c-72 -22 -134 -90 -143 -158 l-5 -40 -89 -4 c-124 -4 -124
-4 -124 -172 0 -118 2 -136 19 -155 19 -21 26 -21 395 -21 325 0 380 2 399 16
21 14 22 22 22 152 0 75 -4 142 -8 148 -15 24 -54 34 -126 34 -72 0 -76 1 -76
23 0 12 -9 40 -19 62 -43 94 -149 143 -245 115z m109 -145 c35 -34 34 -86 -1
-114 -35 -27 -66 -26 -100 2 -36 32 -36 83 1 115 34 29 70 28 100 -3z"/>
<path d="M222 1880 c-34 -15 -47 -29 -63 -64 -19 -44 -19 -66 -17 -813 3 -724
4 -770 21 -795 10 -15 30 -35 45 -45 25 -17 68 -18 690 -21 638 -2 665 -2 707
17 79 35 80 37 83 426 l3 340 -70 -70 -71 -69 -2 -216 -3 -215 -630 0 -630 0
0 665 0 665 68 3 67 3 0 104 0 105 -77 0 c-56 0 -90 -6 -121 -20z"/>
<path d="M1410 1795 l0 -104 68 -3 67 -3 5 -103 5 -103 69 70 69 69 -5 89 c-7
150 -53 193 -203 193 l-75 0 0 -105z"/>
<path d="M1985 1750 c-11 -5 -39 -28 -63 -53 l-44 -44 35 -21 c35 -23 120
-109 149 -152 l16 -25 47 45 c25 25 48 55 51 66 17 68 -128 208 -191 184z"/>
<path d="M1428 1203 l-387 -388 -61 -136 c-62 -142 -70 -173 -45 -182 8 -4 81
24 164 60 l149 66 387 387 386 386 -44 60 c-40 54 -131 134 -153 134 -5 0
-183 -174 -396 -387z m-274 -467 c54 -50 48 -66 -39 -103 -41 -17 -77 -27 -81
-22 -12 19 50 159 70 159 8 0 31 -15 50 -34z"/>
<path d="M426 1454 c-3 -8 -6 -64 -6 -124 0 -80 4 -111 14 -119 9 -8 55 -11
137 -9 l124 3 0 130 0 130 -131 3 c-113 2 -132 0 -138 -14z m209 -119 l0 -70
-72 -3 -73 -3 0 76 0 76 73 -3 72 -3 0 -70z"/>
<path d="M850 1370 l0 -30 275 0 275 0 0 30 0 30 -275 0 -275 0 0 -30z"/>
<path d="M850 1230 l0 -30 213 0 213 0 29 30 29 30 -242 0 -242 0 0 -30z"/>
<path d="M432 1108 c-14 -14 -17 -225 -4 -246 7 -9 41 -12 138 -10 l129 3 0
130 0 130 -125 3 c-89 2 -129 -1 -138 -10z m203 -123 l0 -70 -72 -3 -73 -3 0
76 0 76 73 -3 72 -3 0 -70z"/>
<path d="M850 1090 l0 -30 143 0 143 0 29 30 29 30 -172 0 -172 0 0 -30z"/>
<path d="M850 950 l0 -30 73 0 c68 0 75 2 102 30 l29 30 -102 0 -102 0 0 -30z"/>
<path d="M432 758 c-19 -19 -16 -232 4 -252 20 -21 220 -23 247 -3 15 11 17
28 15 137 l-3 125 -125 3 c-89 2 -129 -1 -138 -10z m203 -123 l0 -70 -72 -3
-73 -3 0 76 0 76 73 -3 72 -3 0 -70z"/>
</g>
</svg>
